<svg width="22" height="25" viewBox="0 0 22 25" fill="none" xmlns="http://www.w3.org/2000/svg">
<path d="M14.1855 25H4.85938C2.70541 25 0.953125 23.2477 0.953125 21.0938V7.86133C0.953125 5.70736 2.70541 3.95508 4.85938 3.95508H14.1855C16.3395 3.95508 18.0918 5.70736 18.0918 7.86133V21.0938C18.0918 23.2477 16.3395 25 14.1855 25ZM4.85938 5.9082C3.78249 5.9082 2.90625 6.78444 2.90625 7.86133V21.0938C2.90625 22.1706 3.78249 23.0469 4.85938 23.0469H14.1855C15.2624 23.0469 16.1387 22.1706 16.1387 21.0938V7.86133C16.1387 6.78444 15.2624 5.9082 14.1855 5.9082H4.85938ZM21.998 18.6523V3.90625C21.998 1.75228 20.2458 0 18.0918 0H7.25195C6.71255 0 6.27539 0.437164 6.27539 0.976562C6.27539 1.51596 6.71255 1.95312 7.25195 1.95312H18.0918C19.1687 1.95312 20.0449 2.82936 20.0449 3.90625V18.6523C20.0449 19.1917 20.4821 19.6289 21.0215 19.6289C21.5609 19.6289 21.998 19.1917 21.998 18.6523Z" fill="#333333"/>
</svg>
